<svg width="1772" height="1772" viewBox="0 0 1772 1772" fill="none" xmlns="http://www.w3.org/2000/svg">
<rect width="1772" height="1772" rx="250" fill="black"/>
<path d="M1253.46 1084.69C1253.46 1100.32 1250.69 1117.08 1245.16 1134.98C1239.95 1152.89 1231.16 1169.49 1218.79 1184.79C1206.75 1200.09 1190.96 1212.95 1171.43 1223.36C1151.9 1233.45 1127.97 1238.5 1099.65 1238.5H617.719C608.604 1238.5 600.141 1236.87 592.328 1233.62C584.516 1230.36 577.68 1225.97 571.82 1220.43C566.286 1214.57 561.892 1207.74 558.637 1199.93C555.382 1192.11 553.754 1183.65 553.754 1174.54V602.27C553.754 593.48 555.382 585.18 558.637 577.367C561.892 569.555 566.286 562.719 571.82 556.859C577.68 551 584.516 546.443 592.328 543.188C600.141 539.932 608.604 538.305 617.719 538.305H1042.52C1058.15 538.305 1074.91 541.072 1092.82 546.605C1110.72 552.139 1127.32 561.091 1142.62 573.461C1158.25 585.505 1171.1 601.293 1181.2 620.824C1191.61 640.355 1196.82 664.281 1196.82 692.602V716.527C1196.82 738.988 1193.08 763.24 1185.59 789.281C1178.1 814.997 1166.06 839.411 1149.46 862.523C1163.78 871.312 1177.13 881.892 1189.5 894.262C1202.19 906.632 1213.26 920.954 1222.7 937.23C1232.14 953.507 1239.63 971.898 1245.16 992.406C1250.69 1012.91 1253.46 1035.54 1253.46 1060.28V1084.69ZM1126.51 1060.28C1126.51 1043.68 1123.9 1028.86 1118.7 1015.84C1113.49 1002.5 1106.16 991.104 1096.72 981.664C1087.28 972.224 1075.89 965.062 1062.54 960.18C1049.2 954.971 1034.22 952.367 1017.62 952.367H731.488V824.438H960.492C977.094 824.438 992.068 821.996 1005.41 817.113C1018.76 811.905 1030.15 804.581 1039.59 795.141C1049.03 785.701 1056.2 774.47 1061.08 761.449C1066.29 748.103 1068.89 733.129 1068.89 716.527V692.602C1068.89 674.372 1060.1 665.258 1042.52 665.258H680.707V1111.55H1099.65C1101.93 1111.55 1104.7 1111.38 1107.95 1111.06C1111.21 1110.73 1114.14 1109.76 1116.74 1108.13C1119.35 1106.5 1121.62 1103.73 1123.58 1099.83C1125.53 1095.92 1126.51 1090.55 1126.51 1083.71V1060.28Z" fill="white"/>
</svg>
